<?xml version="1.0" encoding="UTF-8"?>
<svg width="700pt" height="700pt" version="1.1" viewBox="0 0 700 700" xmlns="http://www.w3.org/2000/svg" xmlns:xlink="http://www.w3.org/1999/xlink">
 <defs>
  <symbol id="u" overflow="visible">
   <path d="m6.2344-0.375c-0.32422 0.16797-0.66406 0.29297-1.0156 0.375-0.34375 0.082031-0.70312 0.125-1.0781 0.125-1.1367 0-2.0312-0.3125-2.6875-0.9375-0.65625-0.63281-0.98438-1.4883-0.98438-2.5625 0-1.082 0.32812-1.9414 0.98438-2.5781 0.65625-0.63281 1.5508-0.95312 2.6875-0.95312 0.375 0 0.73438 0.046875 1.0781 0.14062 0.35156 0.085937 0.69141 0.21094 1.0156 0.375v1.3906c-0.32422-0.21875-0.64844-0.37891-0.96875-0.48438-0.3125-0.10156-0.64062-0.15625-0.98438-0.15625-0.625 0-1.1211 0.20312-1.4844 0.60938-0.35547 0.39844-0.53125 0.94922-0.53125 1.6562 0 0.69922 0.17578 1.2461 0.53125 1.6406 0.36328 0.39844 0.85938 0.59375 1.4844 0.59375 0.34375 0 0.67188-0.046875 0.98438-0.14062 0.32031-0.10156 0.64453-0.26953 0.96875-0.5z"/>
  </symbol>
  <symbol id="e" overflow="visible">
   <path d="m4.5625-3.7031c-0.14844-0.0625-0.29297-0.10938-0.4375-0.14062-0.13672-0.03125-0.27734-0.046875-0.42188-0.046875-0.41797 0-0.74219 0.13672-0.96875 0.40625-0.21875 0.26172-0.32812 0.64062-0.32812 1.1406v2.3438h-1.625v-5.0781h1.625v0.82812c0.20703-0.33203 0.44531-0.57031 0.71875-0.71875 0.26953-0.15625 0.59375-0.23438 0.96875-0.23438 0.0625 0 0.125 0.007813 0.1875 0.015625 0.0625 0 0.14844 0.007812 0.26562 0.015625z"/>
  </symbol>
  <symbol id="b" overflow="visible">
   <path d="m5.8594-2.5625v0.46875h-3.7969c0.03125 0.38672 0.16406 0.67188 0.40625 0.85938 0.23828 0.1875 0.56641 0.28125 0.98438 0.28125 0.34375 0 0.69141-0.046875 1.0469-0.14062 0.36328-0.10156 0.73438-0.25781 1.1094-0.46875v1.25c-0.38672 0.14844-0.77344 0.25781-1.1562 0.32812-0.375 0.070312-0.75781 0.10938-1.1406 0.10938-0.92969 0-1.6484-0.22656-2.1562-0.6875-0.5-0.46875-0.75-1.125-0.75-1.9688 0-0.83203 0.25-1.4844 0.75-1.9531 0.5-0.47656 1.1875-0.71875 2.0625-0.71875 0.80078 0 1.4414 0.24219 1.9219 0.71875 0.47656 0.48047 0.71875 1.1211 0.71875 1.9219zm-1.6719-0.53125c0-0.3125-0.09375-0.5625-0.28125-0.75-0.17969-0.1875-0.41406-0.28125-0.70312-0.28125-0.3125 0-0.57031 0.089844-0.76562 0.26562-0.19922 0.17969-0.32031 0.43359-0.35938 0.76562z"/>
  </symbol>
  <symbol id="d" overflow="visible">
   <path d="m3.0625-2.2812c-0.34375 0-0.60547 0.058594-0.78125 0.17188-0.16797 0.11719-0.25 0.28125-0.25 0.5 0 0.21094 0.066406 0.37109 0.20312 0.48438 0.14453 0.11719 0.33594 0.17188 0.57812 0.17188 0.3125 0 0.57031-0.10938 0.78125-0.32812 0.20703-0.21875 0.3125-0.49219 0.3125-0.82812v-0.17188zm2.4844-0.625v2.9062h-1.6406v-0.75c-0.21875 0.30469-0.46484 0.52734-0.73438 0.67188-0.27344 0.13281-0.60547 0.20312-1 0.20312-0.52344 0-0.94922-0.14844-1.2812-0.45312-0.32422-0.3125-0.48438-0.71094-0.48438-1.2031 0-0.59375 0.20312-1.0234 0.60938-1.2969 0.40625-0.28125 1.0508-0.42188 1.9375-0.42188h0.95312v-0.125c0-0.25781-0.10547-0.44531-0.3125-0.5625-0.19922-0.125-0.51172-0.1875-0.9375-0.1875-0.35547 0-0.68359 0.039062-0.98438 0.10938-0.29297 0.0625-0.57031 0.16797-0.82812 0.3125v-1.25c0.34375-0.082031 0.69141-0.14453 1.0469-0.1875 0.35156-0.039063 0.70703-0.0625 1.0625-0.0625 0.91406 0 1.5781 0.18359 1.9844 0.54688 0.40625 0.35547 0.60938 0.9375 0.60938 1.75z"/>
  </symbol>
  <symbol id="c" overflow="visible">
   <path d="m2.5625-6.5312v1.4531h1.6719v1.1562h-1.6719v2.1562c0 0.24219 0.046875 0.40234 0.14062 0.48438 0.09375 0.085938 0.27344 0.125 0.54688 0.125h0.84375v1.1562h-1.3906c-0.64844 0-1.1055-0.12891-1.375-0.39062-0.26172-0.26953-0.39062-0.72656-0.39062-1.375v-2.1562h-0.8125v-1.1562h0.8125v-1.4531z"/>
  </symbol>
  <symbol id="k" overflow="visible">
   <path d="m4.2344-4.3438v-2.7188h1.6406v7.0625h-1.6406v-0.73438c-0.21875 0.30469-0.46484 0.52344-0.73438 0.65625-0.27344 0.13281-0.58594 0.20312-0.9375 0.20312-0.625 0-1.1406-0.24219-1.5469-0.73438-0.39844-0.5-0.59375-1.1406-0.59375-1.9219 0-0.78906 0.19531-1.4297 0.59375-1.9219 0.40625-0.5 0.92188-0.75 1.5469-0.75 0.35156 0 0.66406 0.074219 0.9375 0.21875 0.26953 0.13672 0.51562 0.35156 0.73438 0.64062zm-1.0625 3.2969c0.34375 0 0.60156-0.125 0.78125-0.375 0.1875-0.25781 0.28125-0.62891 0.28125-1.1094 0-0.48828-0.09375-0.85938-0.28125-1.1094-0.17969-0.25781-0.4375-0.39062-0.78125-0.39062s-0.60938 0.13281-0.79688 0.39062c-0.17969 0.25-0.26562 0.62109-0.26562 1.1094 0 0.48047 0.085937 0.85156 0.26562 1.1094 0.1875 0.25 0.45312 0.375 0.79688 0.375z"/>
  </symbol>
  <symbol id="j" overflow="visible">
   <path d="m3.4844-1.0469c0.35156 0 0.61719-0.125 0.79688-0.375 0.1875-0.25781 0.28125-0.62891 0.28125-1.1094 0-0.48828-0.09375-0.85938-0.28125-1.1094-0.17969-0.25781-0.44531-0.39062-0.79688-0.39062-0.34375 0-0.60938 0.13281-0.79688 0.39062-0.1875 0.25-0.28125 0.62109-0.28125 1.1094 0 0.48047 0.09375 0.85156 0.28125 1.1094 0.1875 0.25 0.45312 0.375 0.79688 0.375zm-1.0781-3.2969c0.21875-0.28906 0.46094-0.50391 0.73438-0.64062 0.28125-0.14453 0.59766-0.21875 0.95312-0.21875 0.625 0 1.1328 0.25 1.5312 0.75 0.40625 0.49219 0.60938 1.1328 0.60938 1.9219 0 0.78125-0.20312 1.4219-0.60938 1.9219-0.39844 0.49219-0.90625 0.73438-1.5312 0.73438-0.35547 0-0.67188-0.070312-0.95312-0.20312-0.27344-0.14453-0.51562-0.36328-0.73438-0.65625v0.73438h-1.625v-7.0625h1.625z"/>
  </symbol>
  <symbol id="g" overflow="visible">
   <path d="m0.10938-5.0781h1.625l1.375 3.4375 1.1562-3.4375h1.625l-2.1406 5.5625c-0.21094 0.5625-0.46094 0.95312-0.75 1.1719-0.28125 0.22656-0.65625 0.34375-1.125 0.34375h-0.9375v-1.0625h0.5c0.28125 0 0.48438-0.046875 0.60938-0.14062 0.125-0.085937 0.21875-0.24219 0.28125-0.46875l0.046875-0.14062z"/>
  </symbol>
  <symbol id="i" overflow="visible">
   <path d="m6.9531-0.5c-0.4375 0.21094-0.89062 0.36719-1.3594 0.46875-0.46875 0.10156-0.95312 0.15625-1.4531 0.15625-1.1367 0-2.0312-0.3125-2.6875-0.9375-0.65625-0.63281-0.98438-1.4883-0.98438-2.5625 0-1.0938 0.33203-1.9531 1-2.5781 0.67578-0.63281 1.5977-0.95312 2.7656-0.95312 0.44531 0 0.875 0.046875 1.2812 0.14062 0.41406 0.085937 0.8125 0.21094 1.1875 0.375v1.3906c-0.38672-0.20703-0.76562-0.36328-1.1406-0.46875-0.375-0.11328-0.75-0.17188-1.125-0.17188-0.6875 0-1.2266 0.19922-1.6094 0.59375-0.375 0.38672-0.5625 0.94531-0.5625 1.6719 0 0.71094 0.17969 1.2617 0.54688 1.6562 0.36328 0.38672 0.87891 0.57812 1.5469 0.57812 0.1875 0 0.35938-0.007813 0.51562-0.03125 0.15625-0.019531 0.28906-0.054687 0.40625-0.10938v-1.3125h-1.0625v-1.1719h2.7344z"/>
  </symbol>
  <symbol id="f" overflow="visible">
   <path d="m5.8906-3.0938v3.0938h-1.625v-2.375c0-0.4375-0.011719-0.73828-0.03125-0.90625-0.023437-0.16406-0.058594-0.28516-0.10938-0.35938-0.0625-0.10156-0.15234-0.1875-0.26562-0.25-0.10547-0.0625-0.22656-0.09375-0.35938-0.09375-0.34375 0-0.61719 0.13281-0.8125 0.39062-0.1875 0.26172-0.28125 0.625-0.28125 1.0938v2.5h-1.625v-5.0781h1.625v0.73438c0.25-0.28906 0.50781-0.50391 0.78125-0.64062 0.26953-0.14453 0.57031-0.21875 0.90625-0.21875 0.59375 0 1.0391 0.18359 1.3438 0.54688 0.30078 0.35547 0.45312 0.875 0.45312 1.5625z"/>
  </symbol>
  <symbol id="t" overflow="visible">
   <path d="m0.85938-6.7812h1.7344v2.4844l2.5312-2.4844h2.0312l-3.2656 3.2188 3.5938 3.5625h-2.1875l-2.7031-2.6719v2.6719h-1.7344z"/>
  </symbol>
  <symbol id="h" overflow="visible">
   <path d="m5.8906-3.0938v3.0938h-1.625v-2.3594c0-0.44531-0.011719-0.75391-0.03125-0.92188-0.023437-0.16406-0.058594-0.28516-0.10938-0.35938-0.0625-0.10156-0.15234-0.1875-0.26562-0.25-0.10547-0.0625-0.22656-0.09375-0.35938-0.09375-0.34375 0-0.61719 0.13281-0.8125 0.39062-0.1875 0.26172-0.28125 0.625-0.28125 1.0938v2.5h-1.625v-7.0625h1.625v2.7188c0.25-0.28906 0.50781-0.50391 0.78125-0.64062 0.26953-0.14453 0.57031-0.21875 0.90625-0.21875 0.59375 0 1.0391 0.18359 1.3438 0.54688 0.30078 0.35547 0.45312 0.875 0.45312 1.5625z"/>
  </symbol>
  <symbol id="a" overflow="visible">
   <path d="m3.2031-4.0469c-0.36719 0-0.64062 0.13281-0.82812 0.39062-0.1875 0.26172-0.28125 0.63672-0.28125 1.125 0 0.48047 0.09375 0.85156 0.28125 1.1094 0.1875 0.26172 0.46094 0.39062 0.82812 0.39062 0.35156 0 0.625-0.12891 0.8125-0.39062 0.1875-0.25781 0.28125-0.62891 0.28125-1.1094 0-0.48828-0.09375-0.86328-0.28125-1.125-0.1875-0.25781-0.46094-0.39062-0.8125-0.39062zm0-1.1562c0.875 0 1.5547 0.23438 2.0469 0.70312 0.48828 0.46875 0.73438 1.125 0.73438 1.9688 0 0.83594-0.24609 1.4844-0.73438 1.9531-0.49219 0.46875-1.1719 0.70312-2.0469 0.70312s-1.5625-0.23438-2.0625-0.70312c-0.49219-0.46875-0.73438-1.1172-0.73438-1.9531 0-0.84375 0.24219-1.5 0.73438-1.9688 0.5-0.46875 1.1875-0.70312 2.0625-0.70312z"/>
  </symbol>
  <symbol id="s" overflow="visible">
   <path d="m0.85938-6.7812h1.7344v5.4531h3.0781v1.3281h-4.8125z"/>
  </symbol>
  <symbol id="r" overflow="visible">
   <path d="m4.125-7.0625v1.0625h-0.89062c-0.24219 0-0.40625 0.042969-0.5 0.125-0.085937 0.085938-0.125 0.23047-0.125 0.4375v0.35938h1.3906v1.1562h-1.3906v3.9219h-1.625v-3.9219h-0.8125v-1.1562h0.8125v-0.35938c0-0.55078 0.14844-0.95703 0.45312-1.2188 0.3125-0.26953 0.78906-0.40625 1.4375-0.40625z"/>
  </symbol>
  <symbol id="q" overflow="visible">
   <path d="m5.5-4.2344c0.19531-0.32031 0.4375-0.5625 0.71875-0.71875 0.28906-0.16406 0.60156-0.25 0.9375-0.25 0.58203 0 1.0234 0.18359 1.3281 0.54688 0.3125 0.35547 0.46875 0.875 0.46875 1.5625v3.0938h-1.6406v-2.6562c0.007812-0.03125 0.015625-0.066406 0.015625-0.10938v-0.1875c0-0.36328-0.054687-0.625-0.15625-0.78125-0.10547-0.16406-0.27734-0.25-0.51562-0.25-0.3125 0-0.55469 0.13281-0.71875 0.39062-0.16797 0.25-0.25781 0.61719-0.26562 1.0938v2.5h-1.625v-2.6562c0-0.5625-0.054687-0.92188-0.15625-1.0781-0.09375-0.16406-0.26562-0.25-0.51562-0.25-0.30469 0-0.54297 0.13281-0.71875 0.39062-0.16797 0.25-0.25 0.61719-0.25 1.0938v2.5h-1.6406v-5.0781h1.6406v0.73438c0.19531-0.28125 0.42578-0.49219 0.6875-0.64062 0.25781-0.14453 0.54688-0.21875 0.85938-0.21875 0.34375 0 0.64844 0.085937 0.92188 0.25 0.26953 0.16797 0.47656 0.40625 0.625 0.71875z"/>
  </symbol>
  <symbol id="p" overflow="visible">
   <path d="m0.85938-6.7812h1.9531l2.4531 4.6562v-4.6562h1.6562v6.7812h-1.9531l-2.4531-4.6562v4.6562h-1.6562z"/>
  </symbol>
  <symbol id="o" overflow="visible">
   <path d="m0.71875-1.9844v-3.0938h1.6406v0.5c0 0.28125-0.007813 0.63281-0.015625 1.0469v0.82812c0 0.40625 0.007812 0.70312 0.03125 0.89062 0.03125 0.17969 0.066406 0.30469 0.10938 0.375 0.070313 0.11719 0.16016 0.20312 0.26562 0.26562 0.11328 0.054687 0.23828 0.078125 0.375 0.078125 0.33203 0 0.59766-0.12891 0.79688-0.39062 0.19531-0.25781 0.29688-0.625 0.29688-1.0938v-2.5h1.625v5.0781h-1.625v-0.73438c-0.25 0.29297-0.51562 0.51172-0.79688 0.65625-0.27344 0.13281-0.57031 0.20312-0.89062 0.20312-0.59375 0-1.0469-0.17578-1.3594-0.53125-0.30469-0.36328-0.45312-0.89062-0.45312-1.5781z"/>
  </symbol>
  <symbol id="n" overflow="visible">
   <path d="m0.85938-6.7812h2.8906c0.86328 0 1.5234 0.19531 1.9844 0.57812 0.46875 0.38672 0.70312 0.93359 0.70312 1.6406 0 0.71094-0.23438 1.2578-0.70312 1.6406-0.46094 0.38672-1.1211 0.57812-1.9844 0.57812h-1.1562v2.3438h-1.7344zm1.7344 1.2656v1.8906h0.96875c0.34375 0 0.60156-0.078125 0.78125-0.23438 0.1875-0.16406 0.28125-0.39844 0.28125-0.70312 0-0.30078-0.09375-0.53516-0.28125-0.70312-0.17969-0.16406-0.4375-0.25-0.78125-0.25z"/>
  </symbol>
  <symbol id="m" overflow="visible">
   <path d="m0.78125-5.0781h1.625v4.9844c0 0.6875-0.16797 1.207-0.5 1.5625-0.32422 0.35156-0.79297 0.53125-1.4062 0.53125h-0.8125v-1.0625h0.28125c0.3125 0 0.52344-0.074219 0.64062-0.21875 0.11328-0.13672 0.17188-0.40625 0.17188-0.8125zm0-1.9844h1.625v1.3281h-1.625z"/>
  </symbol>
  <symbol id="l" overflow="visible">
   <path d="m4.8906-4.9219v1.3281c-0.21875-0.15625-0.44531-0.26953-0.67188-0.34375-0.21875-0.070312-0.44922-0.10938-0.6875-0.10938-0.46094 0-0.8125 0.13672-1.0625 0.40625-0.25 0.26172-0.375 0.63281-0.375 1.1094 0 0.46875 0.125 0.83984 0.375 1.1094 0.25 0.26172 0.60156 0.39062 1.0625 0.39062 0.25 0 0.48828-0.035156 0.71875-0.10938 0.22656-0.070313 0.44141-0.1875 0.64062-0.34375v1.3281c-0.26172 0.09375-0.52344 0.16016-0.78125 0.20312-0.26172 0.050781-0.52344 0.078125-0.78125 0.078125-0.91797 0-1.6367-0.23438-2.1562-0.70312-0.51172-0.46875-0.76562-1.1172-0.76562-1.9531 0-0.84375 0.25391-1.5 0.76562-1.9688 0.51953-0.46875 1.2383-0.70312 2.1562-0.70312 0.26953 0 0.53125 0.027344 0.78125 0.078125 0.25781 0.042969 0.51953 0.10938 0.78125 0.20312z"/>
  </symbol>
 </defs>
 <g>
  <path d="m587.63 529.38v-498.75h21.875v-30.625h-350v30.625h21.875v140.48c5.3398 2.2812 10.246 5.5938 14.461 9.8477 17.691 17.848 17.562 46.758-0.28125 64.449-4.1523 4.1133-8.957 7.3242-14.18 9.5508v17.152c-7.5938 2.9023-13.938 3.9453-19.258 3.957-11.434-0.039062-19.246-4.6328-25.027-9.6523-2.8242-2.4961-4.9688-5.0508-6.3164-6.8867-0.67578-0.91406-1.1562-1.6484-1.4297-2.0898-0.11719-0.1875-0.19531-0.31641-0.23828-0.39062-0.015625-0.035156-0.027344-0.050781-0.035156-0.0625l-0.003907-0.003906c-0.73437-1.3281-1.6445-2.5-2.6797-3.5039-0.65234-0.97656-1.3672-1.9219-2.2031-2.793-11.336-11.805-35.426-16.754-57.848 1.3281-30.695 25.039-45.996 44.277-63.914 81.832-10.141 26.211-0.90234 36.711 11.984 45.156 1.3711 1.1055 2.8945 2.0547 4.543 2.8438 3.4922 2.125 6.4805 3.8672 9.1914 4.9258 4.457 2.7578 10.102 6.7656 15.324 11.961 5.0781 5 9.7461 10.988 13.086 17.891 3.332 6.9297 5.4766 14.715 5.5039 24.43-0.015625 12.195-3.4961 27.891-14.711 48.121-6.2344 11.227-2.1914 25.387 9.0352 31.621 3.5742 1.9883 7.4492 2.9336 11.273 2.9336 8.1719 0 16.102-4.3164 20.352-11.965l-0.003906-0.003907c14.238-25.586 20.582-49.328 20.566-70.707 0.027344-18.078-4.5859-34.117-11.41-47.211-10.027-19.238-24.215-32.273-35.914-40.82 12.613-17.137 30.176-32.211 44.098-45.375-1.3516-1.1328-2.5625-2.2227-3.6211-3.2266-10.332-9.7578-15.57-19.281-17.344-22.922-2.1797-4.6641-2.3984-9.7148-0.70312-14.383 1.6992-4.6719 5.1133-8.4023 9.6133-10.5 2.4883-1.1641 5.1328-1.75 7.8555-1.75 7.1406 0 13.734 4.1602 16.805 10.605 0.050781 0.089844 0.14844 0.26953 0.28516 0.52734 0.30469 0.55078 0.83594 1.4609 1.5938 2.5977 1.4414 2.1641 3.8867 5.4336 7.3867 8.7188 5.7109 5.2539 15.254 12.281 31.824 12.355 9.5039-0.003907 20.16-2.4492 31.648-7.2734 2.1562-0.90625 4.418-1.3789 6.7383-1.4375l6.1641-7.7539c2.0977-2.6523 5.1016-4.3242 8.4102-4.7656v-237.81h245v498.75h-245v-217.72c-1.8555 2.1602-4.1836 3.8867-6.8867 5.0234-1.3828 0.58203-2.7578 1.1094-4.1328 1.6406l-8.2656 10.398c-2.4883 3.1289-6.207 4.918-10.195 4.918-0.38672 0-0.76172-0.0625-1.1406-0.097657v195.83l-234.64 0.003906v30.625h606.51v-30.625z"/>
  <path d="m548.26 520.62v-481.25h-227.5v222.7l7.4414-9.3594c0.34766-0.60547 0.77344-1.1484 1.2852-1.6133l15.098-18.992 2.3125-2.9102 0.11328 0.089843v-41.16h74.375v140h-74.375v-56.875h-6.5625v32.812c0 3.625-2.9414 6.5625-6.5625 6.5625s-6.5625-2.9375-6.5625-6.5625v-29.328l-1.4414 1.8164c1.6953 4.2617 1.0391 9.1523-1.8984 12.852l-3.2227 4.0547v227.17l227.5-0.003906zm-100.62-455h74.375v96.25h-74.375zm0 122.5h74.375v140h-74.375zm0 166.25h74.375v140h-74.375zm-100.62-192.5v-96.25h74.375v96.25zm0 192.5h74.375v140h-74.375z"/>
  <path d="m340.44 258.23v4.2695h6.5664v-12.527z"/>
  <path d="m351.38 70h65.621v87.5h-65.621z"/>
  <path d="m452 70h65.625v87.5h-65.625z"/>
  <path d="m351.38 358.75h65.625v131.25h-65.625z"/>
  <path d="m452 358.75h65.625v131.25h-65.625z"/>
  <path d="m354.17 234.98 2.918 2.3125-2.3164 2.9102-3.3906 4.2656v18.031h21.871c2.418 0 4.375 1.9609 4.375 4.375 0 2.418-1.9609 4.375-4.375 4.375h-21.875v52.5h65.625v-131.25h-65.625v40.262z"/>
  <path d="m452 192.5h65.625v131.25h-65.625z"/>
  <path d="m331.69 284.38h4.375v15.312h-4.375z"/>
  <path d="m293.2 183.59c16.273 16.418 16.152 42.918-0.26172 59.184-16.418 16.27-42.918 16.148-59.188-0.26953-16.27-16.418-16.152-42.918 0.26562-59.184 16.418-16.27 42.914-16.148 59.184 0.26953"/>
  <path d="m289.81 326.41 4.5117-5.6758c-6.6641 2.2188-13.215 3.8359-19.609 4.8516 0.54297 0.85547 1.1953 1.6523 2.0312 2.3125 4.0156 3.1992 9.8711 2.5312 13.066-1.4883z"/>
  <path d="m315.05 292.32c0.22266 0.52734 0.41406 1.0625 0.58594 1.6016l5.4297-6.832c2.5898-3.2539 2.6016-7.6875 0.39844-10.965l30.391-38.23-4.3672-3.4727-30.395 38.234c-3.6875-1.4102-8.0039-0.39453-10.59 2.8594l-4.6758 5.8828c5.8516 1.2617 10.832 5.2422 13.223 10.922z"/>
  <path d="m303.68 313.25c7.5742-3.1875 11.133-11.918 7.9453-19.492s-11.918-11.129-19.488-7.9414c-13.355 5.6094-24.238 7.5664-33.109 7.5703-16.523-0.074219-26.969-6.5664-34.352-13.367-3.6172-3.3945-6.2734-6.8633-7.9336-9.3633-0.83203-1.25-1.418-2.2617-1.7656-2.8867-0.17187-0.3125-0.28516-0.53125-0.33594-0.63672-0.027344-0.050781-0.035156-0.074219-0.035156-0.074219-3.5117-7.3711-12.316-10.543-19.73-7.0859-7.4453 3.4727-10.668 12.332-7.1914 19.777 0.53516 1.0898 5.3516 11.32 16.617 21.961 11.102 10.562 29.5 21.434 54.477 21.434h0.25781c13.312 0.011718 28.234-2.9844 44.645-9.8945z"/>
  <use x="46.746094" y="587.90625" xlink:href="#u"/>
  <use x="53.570312" y="587.90625" xlink:href="#e"/>
  <use x="58.160156" y="587.90625" xlink:href="#b"/>
  <use x="64.46875" y="587.90625" xlink:href="#d"/>
  <use x="70.746094" y="587.90625" xlink:href="#c"/>
  <use x="75.191406" y="587.90625" xlink:href="#b"/>
  <use x="81.5" y="587.90625" xlink:href="#k"/>
  <use x="91.398438" y="587.90625" xlink:href="#j"/>
  <use x="98.058594" y="587.90625" xlink:href="#g"/>
  <use x="107.359375" y="587.90625" xlink:href="#i"/>
  <use x="114.996094" y="587.90625" xlink:href="#d"/>
  <use x="121.273437" y="587.90625" xlink:href="#f"/>
  <use x="131.132812" y="587.90625" xlink:href="#t"/>
  <use x="138.339844" y="587.90625" xlink:href="#h"/>
  <use x="144.964844" y="587.90625" xlink:href="#a"/>
  <use x="151.355469" y="587.90625" xlink:href="#a"/>
  <use x="157.746094" y="587.90625" xlink:href="#f"/>
  <use x="167.605469" y="587.90625" xlink:href="#s"/>
  <use x="173.535156" y="587.90625" xlink:href="#d"/>
  <use x="179.8125" y="587.90625" xlink:href="#g"/>
  <use x="46.746094" y="597.210937" xlink:href="#r"/>
  <use x="50.792969" y="597.210937" xlink:href="#e"/>
  <use x="55.378906" y="597.210937" xlink:href="#a"/>
  <use x="61.769531" y="597.210937" xlink:href="#q"/>
  <use x="74.699219" y="597.210937" xlink:href="#c"/>
  <use x="79.148438" y="597.210937" xlink:href="#h"/>
  <use x="85.769531" y="597.210937" xlink:href="#b"/>
  <use x="95.316406" y="597.210937" xlink:href="#p"/>
  <use x="103.101562" y="597.210937" xlink:href="#a"/>
  <use x="109.492188" y="597.210937" xlink:href="#o"/>
  <use x="116.117187" y="597.210937" xlink:href="#f"/>
  <use x="125.976562" y="597.210937" xlink:href="#n"/>
  <use x="132.796875" y="597.210937" xlink:href="#e"/>
  <use x="137.382812" y="597.210937" xlink:href="#a"/>
  <use x="143.773438" y="597.210937" xlink:href="#m"/>
  <use x="146.960938" y="597.210937" xlink:href="#b"/>
  <use x="153.269531" y="597.210937" xlink:href="#l"/>
  <use x="158.785156" y="597.210937" xlink:href="#c"/>
 </g>
</svg>
